<?xml version="1.0" standalone="no"?>
<!DOCTYPE svg PUBLIC "-//W3C//DTD SVG 20010904//EN"
 "http://www.w3.org/TR/2001/REC-SVG-20010904/DTD/svg10.dtd">
<svg version="1.0" xmlns="http://www.w3.org/2000/svg"
 width="70.000000pt" height="44.000000pt" viewBox="0 0 70.000000 44.000000"
 preserveAspectRatio="xMidYMid meet">
<metadata>
Created by potrace 1.15, written by Peter Selinger 2001-2017
</metadata>
<g transform="translate(0.000000,44.000000) scale(0.100000,-0.100000)"
fill="#000000" stroke="none">
<path d="M52 346 c-29 -51 -52 -99 -52 -106 0 -17 30 -39 53 -40 9 0 17 5 17
11 0 7 9 0 21 -15 17 -22 19 -29 9 -41 -10 -13 -9 -19 5 -35 10 -11 21 -17 26
-15 4 3 9 -5 11 -17 2 -13 11 -24 23 -27 11 -2 26 -12 33 -23 8 -11 21 -17 28
-14 8 3 17 -1 20 -9 8 -21 51 -19 63 3 6 9 11 12 11 5 0 -15 61 -27 89 -18 12
3 21 12 21 20 0 7 8 12 17 11 9 0 22 8 27 19 6 11 18 20 26 20 8 0 19 9 25 21
5 11 15 19 21 17 6 -2 17 4 24 12 11 13 11 21 2 36 -10 16 -9 19 3 19 8 0 24
9 35 20 11 11 20 15 20 10 0 -14 32 -12 53 4 9 7 17 19 17 27 0 24 -103 199
-117 199 -27 0 -53 -21 -53 -42 0 -20 -3 -20 -67 -13 -121 13 -168 10 -191
-13 -17 -17 -23 -17 -60 -7 -23 7 -44 10 -48 6 -4 -3 -2 4 5 16 9 18 8 24 -11
37 -40 29 -52 20 -106 -78z"/>
</g>
</svg>
