<?xml version="1.0" standalone="no"?>
<!DOCTYPE svg PUBLIC "-//W3C//DTD SVG 20010904//EN"
 "http://www.w3.org/TR/2001/REC-SVG-20010904/DTD/svg10.dtd">
<svg version="1.0" xmlns="http://www.w3.org/2000/svg"
 width="100.000000pt" height="63.000000pt" viewBox="0 0 100.000000 63.000000"
 preserveAspectRatio="xMidYMid meet">
<metadata>
Created by potrace 1.15, written by Peter Selinger 2001-2017
</metadata>
<g transform="translate(0.000000,63.000000) scale(0.100000,-0.100000)"
fill="#000000" stroke="none">
<path d="M141 601 c-12 -16 -21 -31 -21 -34 0 -3 -27 -52 -60 -110 -33 -57
-60 -109 -60 -115 0 -11 60 -52 77 -52 5 0 46 66 92 146 64 114 79 149 69 156
-20 13 -66 38 -72 38 -2 0 -14 -13 -25 -29z"/>
<path d="M793 610 c-18 -11 -33 -26 -33 -34 0 -11 142 -271 156 -285 7 -8 76
31 81 46 6 15 -148 292 -162 293 -5 0 -25 -9 -42 -20z"/>
<path d="M455 553 c-11 -2 -31 -9 -45 -14 -32 -13 -113 -131 -104 -153 3 -9 1
-16 -5 -16 -20 0 -12 35 20 84 16 27 29 49 27 50 -2 1 -21 7 -43 12 -22 6 -46
13 -53 15 -8 3 -38 -39 -78 -110 l-65 -113 22 -24 c16 -18 28 -22 51 -17 19 4
35 0 47 -11 17 -16 22 -16 43 -3 30 19 65 7 73 -26 4 -14 17 -30 30 -37 32
-17 49 -64 29 -81 -8 -7 -24 -25 -36 -41 -19 -28 -19 -30 -3 -49 25 -27 48
-24 73 11 26 35 27 48 5 72 -9 10 -11 18 -5 18 18 0 34 -40 28 -66 -5 -20 -2
-26 19 -34 54 -21 125 -8 125 22 0 5 -24 20 -52 34 -63 30 -35 25 39 -7 43
-19 54 -20 67 -10 31 25 18 48 -44 82 -32 18 -57 35 -55 37 2 2 35 -13 74 -35
77 -41 106 -39 106 8 0 18 -14 31 -63 59 -34 20 -68 42 -75 50 -6 7 8 1 33
-14 104 -63 148 -80 164 -67 35 29 15 59 -94 138 -77 55 -211 133 -231 133 -9
0 -33 -15 -53 -34 -36 -35 -72 -53 -83 -42 -4 3 1 6 10 6 9 0 37 18 62 40 25
22 54 40 64 40 31 0 195 -99 311 -189 l26 -20 32 25 c18 14 32 31 32 39 0 7
-28 61 -61 120 -56 96 -64 106 -86 102 -14 -2 -41 0 -61 4 -43 11 -188 19
-217 12z"/>
</g>
</svg>
