<?xml version="1.0" standalone="no"?>
<!DOCTYPE svg PUBLIC "-//W3C//DTD SVG 20010904//EN"
 "http://www.w3.org/TR/2001/REC-SVG-20010904/DTD/svg10.dtd">
<svg version="1.0" xmlns="http://www.w3.org/2000/svg"
 width="100.000000pt" height="100.000000pt" viewBox="0 0 100.000000 100.000000"
 preserveAspectRatio="xMidYMid meet">
<metadata>
Created by potrace 1.15, written by Peter Selinger 2001-2017
</metadata>
<g transform="translate(0.000000,100.000000) scale(0.100000,-0.100000)"
fill="#000000" stroke="none">
<path d="M348 981 c-209 -67 -348 -255 -348 -470 0 -143 51 -260 156 -361 285
-274 758 -112 825 283 40 241 -123 489 -365 553 -72 19 -199 17 -268 -5z m258
-71 c7 0 11 -6 8 -14 -3 -8 3 -19 15 -26 17 -9 22 -8 27 4 3 8 12 12 21 9 14
-5 14 -8 1 -17 -8 -6 -18 -23 -22 -38 -4 -19 -13 -28 -26 -28 -29 0 -38 -46
-14 -65 16 -12 17 -16 5 -24 -10 -6 -12 -20 -8 -46 5 -30 2 -41 -17 -58 -29
-27 -45 -57 -45 -85 -1 -12 -1 -32 -1 -44 -1 -12 13 -35 29 -52 26 -26 37 -29
76 -27 34 1 45 -1 39 -10 -4 -7 0 -17 8 -23 23 -17 27 -40 14 -72 -15 -35 -46
-129 -46 -139 0 -4 12 -4 28 -1 52 11 -43 -33 -105 -49 -74 -19 -131 -18 -168
4 -26 16 -30 23 -27 57 2 21 8 42 14 45 5 4 11 19 12 35 2 16 8 39 14 51 7 12
9 28 6 36 -5 14 -46 37 -66 37 -6 0 -26 13 -45 30 -18 16 -40 30 -47 30 -9 0
-12 7 -9 20 3 11 1 20 -5 20 -6 0 -12 12 -14 27 -2 21 -10 29 -35 36 -21 6
-36 19 -44 38 -11 27 -9 32 28 68 27 28 57 45 103 59 68 21 82 36 73 84 -4 19
0 29 16 37 12 7 21 21 21 31 0 11 5 20 10 20 13 0 13 -6 -1 -32 -16 -29 13
-59 39 -40 38 27 65 34 74 17 10 -17 26 -19 48 -5 12 7 12 12 -4 29 -12 13
-16 27 -11 42 5 13 2 25 -6 31 -11 7 -9 8 4 4 10 -3 25 -6 33 -6z"/>
</g>
</svg>
