<?xml version="1.0" standalone="no"?>
<!DOCTYPE svg PUBLIC "-//W3C//DTD SVG 20010904//EN"
 "http://www.w3.org/TR/2001/REC-SVG-20010904/DTD/svg10.dtd">
<svg version="1.0" xmlns="http://www.w3.org/2000/svg"
 width="100.000000pt" height="100.000000pt" viewBox="0 0 100.000000 100.000000"
 preserveAspectRatio="xMidYMid meet">
<metadata>
Created by potrace 1.15, written by Peter Selinger 2001-2017
</metadata>
<g transform="translate(0.000000,100.000000) scale(0.100000,-0.100000)"
fill="#000000" stroke="none">
<path d="M320 938 c-35 -19 -50 -54 -50 -120 l0 -58 -81 0 c-44 0 -89 -4 -99
-10 -35 -18 -40 -65 -40 -342 0 -302 4 -327 60 -347 46 -15 734 -15 780 0 56
20 60 45 60 347 0 277 -5 324 -40 342 -10 6 -54 10 -98 10 l-80 0 -4 70 c-3
56 -8 75 -26 93 -21 21 -32 22 -190 25 -121 2 -174 -1 -192 -10z m281 -108
c12 -7 19 -21 19 -40 l0 -30 -120 0 -120 0 0 30 c0 17 7 33 18 39 22 14 178
14 203 1z m-37 -216 c12 -5 16 -21 16 -65 l0 -59 60 0 c69 0 73 -6 68 -101
l-3 -54 -62 -3 -62 -3 -3 -62 -3 -62 -75 0 -75 0 -3 62 -3 62 -62 3 -62 3 -3
54 c-5 95 -1 101 68 101 l60 0 0 59 c0 38 4 61 13 64 18 8 113 8 131 1z"/>
</g>
</svg>
