<?xml version="1.0" standalone="no"?>
<!DOCTYPE svg PUBLIC "-//W3C//DTD SVG 20010904//EN"
 "http://www.w3.org/TR/2001/REC-SVG-20010904/DTD/svg10.dtd">
<svg version="1.0" xmlns="http://www.w3.org/2000/svg"
 width="400.000000pt" height="400.000000pt" viewBox="0 0 400.000000 400.000000"
 preserveAspectRatio="xMidYMid meet">
<metadata>
Created by potrace 1.15, written by Peter Selinger 2001-2017
</metadata>
<g transform="translate(0.000000,400.000000) scale(0.100000,-0.100000)"
fill="#000000" stroke="none">
<path d="M440 3928 c-29 -51 -39 -77 -33 -87 6 -10 -4 -38 -34 -90 -39 -69
-42 -77 -27 -88 15 -11 11 -22 -40 -109 -58 -100 -66 -124 -42 -124 32 0 24
-25 -43 -138 -39 -65 -71 -123 -71 -130 0 -9 39 -12 150 -12 l150 0 0 -75 0
-75 50 0 50 0 0 75 0 75 150 0 c111 0 150 3 150 12 0 7 -32 65 -71 130 -67
113 -75 138 -43 138 24 0 16 24 -43 126 -37 62 -53 99 -45 102 20 6 14 32 -26
101 -27 47 -36 71 -29 81 13 21 -68 160 -93 160 -12 0 -32 -24 -60 -72z"/>
<path d="M2112 3888 c-61 -62 -109 -114 -106 -117 2 -3 31 22 64 54 33 33 60
57 60 54 0 -3 -30 -35 -67 -72 -36 -37 -63 -70 -59 -74 3 -4 27 13 51 37 25
24 45 41 45 38 0 -4 -24 -29 -52 -57 -29 -27 -49 -53 -45 -58 5 -4 26 11 48
34 21 23 39 39 39 35 0 -3 -21 -28 -47 -54 -26 -26 -43 -51 -39 -55 4 -4 23 9
42 29 19 21 34 33 34 28 0 -5 -19 -27 -42 -49 -24 -22 -40 -43 -36 -47 4 -3
23 9 43 29 19 19 35 31 35 26 0 -4 -19 -26 -42 -48 -24 -22 -40 -43 -36 -47 4
-3 23 9 43 29 19 19 35 32 35 28 0 -4 -18 -25 -40 -46 -22 -21 -40 -44 -40
-49 0 -6 20 10 45 34 25 24 45 40 45 34 0 -5 -20 -30 -45 -54 -25 -24 -45 -49
-45 -54 0 -6 19 9 43 32 23 23 47 42 52 42 5 0 -13 -22 -40 -50 -27 -27 -52
-45 -55 -40 -3 6 -41 13 -83 16 l-77 7 0 77 c0 62 4 82 20 103 24 30 27 77 5
77 -34 0 -86 -31 -105 -62 -15 -25 -20 -50 -20 -107 l0 -73 -72 7 c-40 3 -80
8 -89 11 -12 3 -27 45 -53 152 -51 201 -39 192 -238 192 -88 0 -168 -4 -178
-10 -31 -16 -40 -67 -40 -221 l0 -149 -37 -33 c-30 -28 -35 -38 -29 -60 7 -31
50 -47 75 -28 80 58 133 76 198 67 51 -7 110 -35 140 -68 30 -32 63 -107 63
-145 0 -17 7 -39 16 -47 20 -20 63 -21 70 -1 5 11 21 15 60 15 51 0 54 -1 44
-19 -14 -28 -12 -87 4 -120 23 -43 58 -61 120 -61 44 0 60 5 85 26 42 35 56
90 37 143 -7 23 -10 43 -6 46 5 3 26 50 47 105 20 55 42 100 48 100 6 0 31 20
55 45 24 25 49 45 54 45 6 0 -19 -29 -54 -65 -35 -36 -60 -65 -54 -65 5 0 34
25 64 55 45 45 56 52 63 39 7 -12 -8 -33 -63 -90 -40 -41 -70 -78 -66 -81 4
-4 41 27 84 68 l77 74 -84 -87 c-47 -48 -82 -91 -78 -95 4 -4 45 29 90 73 l82
79 -89 -92 c-50 -51 -87 -96 -82 -100 4 -4 47 33 97 83 49 50 89 88 89 85 0
-3 -44 -49 -97 -103 -53 -54 -94 -101 -90 -105 4 -3 103 89 220 205 116 117
217 215 222 219 6 4 -92 -96 -217 -222 -126 -127 -228 -235 -228 -240 0 -5
106 96 235 225 129 129 235 230 235 225 0 -6 -106 -116 -235 -245 -129 -129
-235 -239 -235 -245 0 -5 104 94 231 220 127 127 226 221 221 210 -6 -11 -110
-119 -231 -240 -122 -121 -221 -224 -221 -230 0 -5 99 89 221 210 122 121 216
211 211 200 -6 -11 -106 -114 -221 -230 -116 -115 -211 -214 -211 -220 0 -5
95 85 210 200 116 115 210 205 210 200 0 -6 -92 -102 -205 -215 -112 -112
-202 -206 -199 -209 2 -3 90 80 194 184 105 105 190 185 190 179 0 -6 -3 -14
-7 -18 -4 -4 -8 -14 -8 -22 0 -8 -67 -82 -149 -164 -82 -82 -146 -153 -142
-157 3 -4 67 53 141 127 74 74 135 132 135 129 0 -4 -55 -61 -122 -127 -67
-67 -119 -125 -115 -129 4 -4 55 40 112 97 58 58 105 102 105 99 0 -3 -42 -47
-92 -97 -51 -50 -89 -94 -85 -99 5 -4 44 29 88 73 43 45 79 78 79 74 0 -4 -30
-37 -67 -73 -37 -36 -64 -69 -60 -73 4 -4 29 15 57 43 27 28 50 48 50 44 0 -3
-17 -22 -37 -43 -20 -21 -34 -40 -31 -44 4 -3 16 4 28 16 l22 22 -7 -23 c-7
-22 -6 -23 9 -10 14 12 19 12 26 2 5 -9 10 -10 14 -2 4 6 12 11 17 11 6 0 7
-4 4 -10 -17 -28 17 -3 70 50 33 33 64 60 69 60 6 0 -16 -27 -49 -60 -33 -33
-55 -60 -49 -60 5 0 36 27 69 60 33 33 64 60 69 60 6 0 -16 -27 -49 -60 -33
-33 -55 -60 -49 -60 5 0 36 27 69 60 33 33 64 60 69 60 6 0 -16 -27 -49 -60
-70 -71 -63 -81 9 -12 l50 47 -38 -43 c-46 -54 -38 -71 10 -20 19 21 34 35 34
31 0 -4 -10 -17 -22 -30 -26 -28 -16 -43 12 -18 18 17 20 17 14 2 -7 -20 6
-23 24 -5 9 9 12 9 12 -1 0 -11 3 -11 16 0 13 10 17 10 24 -2 7 -11 46 22 167
143 86 87 154 161 150 165 -4 4 -76 -60 -160 -142 l-152 -150 159 162 c88 90
156 166 152 170 -4 4 -77 -62 -162 -148 -84 -85 -154 -153 -154 -150 0 3 73
79 162 168 89 90 158 166 154 170 -4 4 -79 -65 -167 -153 -87 -88 -159 -158
-159 -155 0 3 75 81 167 173 92 92 164 170 160 174 -4 4 -82 -66 -175 -157
l-167 -164 175 177 c96 98 171 180 167 184 -4 4 -85 -69 -180 -162 l-172 -169
180 182 c98 100 177 185 174 187 -3 3 -81 -71 -174 -164 -94 -94 -174 -170
-180 -170 -5 0 72 82 173 183 100 100 182 187 182 192 0 5 -81 -71 -180 -170
-99 -99 -180 -175 -180 -170 0 6 81 91 180 190 98 98 177 181 174 184 -2 3
-36 -26 -74 -64 -95 -94 -89 -72 7 26 42 44 72 79 67 79 -5 0 -30 -20 -54 -45
-24 -24 -46 -42 -49 -40 -3 3 22 32 54 65 33 33 55 60 49 60 -5 0 -27 -18 -49
-40 -21 -22 -41 -37 -44 -35 -3 3 20 30 49 60 30 30 50 55 44 55 -5 0 -25 -16
-44 -35 -18 -19 -35 -33 -37 -31 -2 2 18 24 43 50 26 25 44 49 40 53 -3 4 -24
-11 -46 -32 -22 -22 -40 -36 -40 -33 0 3 21 26 46 52 58 57 50 75 -8 20 -40
-36 -39 -36 6 14 59 66 52 82 -9 22 -25 -24 -45 -41 -45 -38 0 4 24 29 52 57
29 27 50 53 46 57 -4 4 -28 -13 -53 -38 -25 -25 -45 -43 -45 -39 0 3 23 29 52
58 28 29 49 56 45 59 -4 4 -29 -15 -57 -43 -27 -28 -50 -47 -50 -44 0 4 25 31
55 61 30 30 55 59 55 64 0 6 -27 -16 -60 -49 -33 -33 -60 -55 -60 -50 0 5 28
38 62 72 34 35 58 63 52 63 -5 0 -34 -25 -64 -55 -30 -30 -59 -55 -64 -55 -6
0 15 26 47 58 31 32 57 62 57 67 0 5 -27 -17 -60 -50 -33 -33 -60 -55 -60 -49
0 5 18 28 40 49 22 21 40 44 40 49 0 6 -20 -10 -45 -34 -24 -24 -47 -41 -50
-39 -2 3 9 18 25 34 17 16 30 33 30 39 0 5 -16 -5 -35 -24 -19 -19 -35 -29
-35 -24 0 6 9 19 20 29 11 10 18 21 15 23 -3 3 -17 -5 -31 -19 -26 -24 -26
-24 -15 -1 11 21 -1 33 -14 12 -3 -5 -11 -10 -16 -10 -6 0 -7 5 -4 10 20 32
-24 -4 -130 -107 l-120 -118 110 112 c60 62 106 116 102 120 -4 3 -60 -46
-124 -110 -64 -64 -120 -117 -123 -117 -4 0 43 49 104 109 61 61 107 113 103
118 -4 4 -80 -65 -167 -154 -88 -89 -160 -159 -160 -155 0 4 66 73 147 154 81
81 144 151 139 155 -4 4 -69 -55 -144 -132 -75 -77 -123 -122 -105 -100 17 22
72 80 122 130 50 49 91 94 91 100 0 5 -49 -40 -110 -100 -60 -60 -110 -105
-110 -100 0 6 41 51 90 100 50 49 90 94 90 100 0 5 -45 -35 -100 -90 -55 -55
-100 -95 -100 -90 0 5 37 47 82 92 45 45 80 85 77 87 -3 3 -63 -53 -134 -124
-71 -71 -132 -127 -134 -124 -3 3 48 57 112 122 64 65 117 122 117 127 0 5
-44 -33 -97 -85 -104 -102 -100 -88 6 23 36 37 61 67 56 67 -5 0 -41 -30 -79
-67 l-70 -68 58 63 c32 35 55 66 52 69 -4 4 -34 -20 -68 -53 l-62 -59 48 53
c72 80 44 77 -33 -3 -72 -76 -111 -111 -111 -103 0 4 35 40 77 82 42 42 73 79
69 83 -4 4 -25 -11 -47 -34 -21 -23 -39 -39 -39 -36 0 4 12 19 27 35 36 38 24
45 -18 11 -20 -16 -27 -19 -16 -7 25 29 21 39 -8 20 -21 -14 -24 -14 -19 -1 4
8 4 15 2 15 -2 0 -54 -50 -116 -112z m-685 -223 l29 -115 -138 0 -138 0 0 115
0 115 108 0 109 0 30 -115z"/>
<path d="M3390 3984 c-82 -35 -150 -142 -150 -235 0 -52 24 -144 56 -216 28
-64 116 -198 169 -258 l35 -40 35 40 c114 128 211 320 222 439 10 114 -48 225
-142 267 -50 23 -175 25 -225 3z m181 -137 c111 -75 32 -251 -100 -222 -68 15
-111 94 -88 163 15 46 67 82 117 82 22 0 51 -9 71 -23z"/>
<path d="M1210 3420 c-170 -32 -236 -244 -113 -361 54 -52 73 -59 153 -59 80
0 99 7 153 59 45 43 73 123 62 179 -24 126 -134 205 -255 182z m113 -123 c54
-43 51 -138 -6 -181 -59 -44 -150 -15 -173 54 -26 79 24 150 106 150 32 0 53
-7 73 -23z"/>
<path d="M3057 3197 c-64 -195 -62 -197 158 -197 l159 0 -30 -31 -29 -30 -3
-266 -3 -265 -29 -24 c-105 -89 -93 -273 24 -352 44 -29 55 -32 126 -32 71 0
82 3 126 33 64 43 94 100 94 180 0 70 -26 133 -70 171 l-29 24 -3 265 -3 266
-29 30 -30 31 231 0 c299 0 293 -6 226 197 l-37 113 -43 0 c-50 0 -52 -6 -28
-105 26 -106 63 -95 -335 -95 -398 0 -361 -11 -335 95 24 99 22 105 -28 105
l-43 0 -37 -113z m413 -267 c19 -19 20 -33 20 -288 l0 -268 31 -23 c47 -35 69
-79 69 -137 0 -65 -29 -111 -90 -141 -56 -29 -84 -29 -140 0 -113 56 -124 202
-21 278 l31 23 0 268 c0 255 1 269 20 288 11 11 29 20 40 20 11 0 29 -9 40
-20z"/>
<path d="M3390 2593 l0 -238 -33 -16 c-44 -21 -80 -91 -72 -139 16 -85 81
-136 161 -127 58 6 99 38 120 92 14 39 15 52 5 87 -14 45 -60 98 -85 98 -14 0
-16 28 -16 240 l0 240 -40 0 -40 0 0 -237z"/>
<path d="M2082 2635 l3 -355 114 -54 c63 -30 123 -53 133 -51 11 2 61 26 112
53 l92 48 16 -37 c28 -67 128 -229 141 -229 13 1 81 105 117 181 17 35 33 51
66 68 l44 21 0 355 c0 234 -3 355 -10 355 -6 0 -55 -22 -110 -50 -55 -27 -102
-50 -104 -50 -3 0 -31 23 -62 50 -31 28 -61 50 -65 50 -5 0 -10 -100 -12 -222
l-2 -223 -3 223 c-1 138 -6 222 -12 222 -5 0 -56 -23 -113 -51 l-103 -51 -108
51 c-60 28 -115 51 -123 51 -11 0 -13 -60 -11 -355z m689 -120 c15 -15 33 -47
39 -71 16 -57 6 -95 -63 -227 -59 -114 -51 -116 -124 30 -58 116 -66 173 -32
233 41 73 123 89 180 35z"/>
<path d="M2654 2493 c-21 -16 -44 -58 -44 -83 0 -34 33 -87 60 -95 75 -24 134
84 83 153 -20 27 -76 41 -99 25z"/>
<path d="M1075 2970 c-4 -6 -16 -8 -27 -4 -17 5 -19 3 -14 -14 4 -11 2 -23 -4
-27 -8 -5 -6 -12 5 -25 14 -15 14 -18 0 -30 -12 -10 -13 -16 -4 -26 9 -11 9
-17 0 -28 -9 -10 -8 -16 4 -26 12 -10 13 -16 4 -26 -8 -10 -11 -63 -11 -157 0
-78 1 -144 2 -147 1 -6 1 -253 0 -260 -4 -17 0 -163 4 -167 4 -5 173 -7 191
-3 6 1 15 1 20 0 26 -5 235 -1 244 5 6 3 16 3 22 -1 13 -8 448 -8 456 0 3 3 6
130 7 282 1 216 -2 278 -12 281 -10 4 -10 8 0 20 13 17 19 253 6 253 -13 0 -9
28 5 33 9 3 9 7 -2 20 -10 13 -11 20 -2 30 15 19 1 30 -17 14 -12 -9 -16 -9
-19 1 -7 18 -30 15 -38 -5 -6 -17 -7 -17 -20 1 -13 17 -17 17 -31 5 -13 -11
-18 -11 -21 -1 -7 18 -30 15 -38 -5 -6 -17 -7 -17 -20 1 -13 17 -17 17 -31 5
-13 -11 -18 -11 -21 -1 -7 18 -30 15 -38 -5 -6 -17 -7 -17 -20 1 -13 17 -17
17 -31 5 -13 -11 -18 -11 -21 -1 -7 18 -30 15 -38 -5 -6 -17 -7 -17 -20 1 -13
17 -17 17 -31 5 -13 -11 -18 -11 -21 -1 -7 18 -30 15 -38 -5 -6 -17 -7 -17
-20 1 -13 17 -17 17 -31 5 -13 -11 -18 -11 -21 -1 -7 18 -30 15 -38 -5 -6 -17
-7 -17 -20 1 -13 17 -17 17 -31 5 -13 -11 -18 -11 -21 -1 -7 18 -30 15 -38 -5
-6 -17 -7 -17 -20 1 -13 17 -17 17 -31 5 -13 -11 -18 -11 -21 -1 -7 18 -30 15
-38 -5 -6 -17 -7 -17 -19 0 -15 20 -22 21 -31 7z"/>
<path d="M161 2775 c-47 -27 -71 -31 -88 -14 -6 6 -23 9 -39 7 -26 -3 -29 -6
-29 -42 0 -31 6 -43 28 -60 40 -29 115 -29 156 2 16 12 40 22 51 22 11 0 35
-10 51 -22 22 -17 45 -23 79 -23 34 0 57 6 79 23 16 12 40 22 51 22 11 0 35
-10 51 -22 22 -17 45 -23 79 -23 34 0 57 6 79 23 16 12 40 22 51 22 11 0 35
-10 51 -22 41 -31 116 -31 156 -2 22 17 28 29 28 60 0 36 -3 39 -29 42 -16 2
-33 -1 -39 -7 -17 -17 -41 -13 -88 14 -57 32 -100 31 -159 -2 -51 -29 -48 -29
-120 12 -14 8 -41 15 -60 15 -19 0 -46 -7 -60 -15 -72 -41 -69 -41 -120 -12
-59 33 -102 34 -159 2z"/>
<path d="M165 2556 c-44 -28 -66 -32 -94 -15 -10 7 -30 9 -44 5 -23 -5 -27
-12 -27 -44 0 -34 4 -41 41 -61 49 -28 106 -24 150 8 36 27 55 26 104 -4 52
-32 102 -32 149 0 20 14 45 25 56 25 11 0 36 -11 56 -25 47 -32 97 -32 149 0
49 30 68 31 104 4 44 -32 101 -36 150 -8 37 20 41 27 41 61 0 32 -4 39 -27 44
-14 4 -34 2 -44 -5 -28 -17 -46 -14 -95 15 -53 31 -109 29 -155 -5 -37 -27
-60 -26 -105 4 -23 16 -51 25 -74 25 -23 0 -51 -9 -74 -25 -45 -31 -68 -31
-105 -4 -45 33 -108 35 -156 5z"/>
<path d="M159 2331 c-50 -27 -59 -28 -75 -16 -43 32 -84 12 -84 -41 0 -40 36
-66 100 -72 36 -3 52 1 83 22 46 32 60 32 99 5 49 -36 107 -36 167 -3 l51 29
51 -29 c60 -33 118 -33 167 3 39 27 53 27 99 -5 31 -21 47 -25 83 -22 64 6
100 32 100 72 0 53 -41 73 -84 41 -16 -12 -25 -11 -75 16 -64 35 -115 35 -162
0 -36 -27 -62 -26 -100 2 -22 16 -45 22 -79 22 -34 0 -57 -6 -79 -22 -38 -28
-64 -29 -100 -2 -47 35 -98 35 -162 0z"/>
<path d="M141 1971 c-12 -16 -21 -31 -21 -34 0 -3 -27 -52 -60 -110 -33 -57
-60 -109 -60 -115 0 -11 60 -52 77 -52 5 0 46 66 92 146 64 114 79 149 69 156
-20 13 -66 38 -72 38 -2 0 -14 -13 -25 -29z"/>
<path d="M793 1980 c-18 -11 -33 -26 -33 -34 0 -11 142 -271 156 -285 7 -8 76
31 81 46 6 15 -148 292 -162 293 -5 0 -25 -9 -42 -20z"/>
<path d="M2361 1984 c-81 -22 -149 -62 -216 -129 -99 -99 -145 -210 -145 -350
0 -252 197 -465 454 -491 132 -13 287 45 387 145 268 268 148 715 -220 825
-67 20 -187 20 -260 0z m245 -74 c7 0 11 -6 8 -14 -3 -8 3 -19 15 -26 17 -9
22 -8 27 4 3 8 12 12 21 9 14 -5 14 -8 1 -17 -8 -6 -18 -23 -22 -38 -4 -19
-13 -28 -26 -28 -29 0 -38 -46 -14 -65 16 -12 17 -16 5 -24 -10 -6 -12 -20 -8
-46 5 -30 2 -41 -17 -58 -33 -31 -43 -56 -45 -108 -1 -38 4 -50 29 -74 25 -24
37 -28 76 -26 34 1 44 -1 38 -10 -4 -7 0 -17 8 -23 23 -17 27 -40 14 -72 -15
-35 -46 -129 -46 -139 0 -4 12 -4 28 -1 52 11 -43 -33 -105 -49 -74 -19 -131
-18 -168 4 -26 16 -30 23 -27 57 2 21 8 42 14 45 5 4 11 19 12 35 2 16 8 39
14 51 7 12 9 28 6 36 -5 15 -46 37 -67 37 -7 0 -27 14 -45 30 -18 17 -40 30
-48 30 -8 0 -12 5 -9 10 4 6 2 16 -3 23 -6 7 -12 23 -14 36 -2 18 -12 27 -34
33 -22 5 -35 17 -44 38 -12 29 -11 33 26 70 22 22 45 40 52 40 6 0 12 5 12 11
0 5 4 8 9 5 5 -4 22 -1 38 6 15 6 34 10 41 9 16 -3 31 39 25 71 -4 20 0 29 16
37 12 7 21 21 21 31 0 11 5 20 10 20 13 0 13 -6 -1 -32 -16 -29 13 -59 39 -40
38 27 65 34 74 17 10 -17 26 -19 48 -5 12 7 12 12 -4 29 -12 13 -16 27 -11 42
5 13 2 25 -6 31 -11 7 -9 8 4 4 10 -3 25 -6 33 -6z"/>
<path d="M1270 1944 c0 -3 13 -16 29 -30 27 -22 61 -97 61 -132 0 -8 -14 4
-31 27 -31 44 -79 71 -124 71 -37 0 -31 -14 15 -34 40 -17 90 -77 105 -125 l7
-24 -36 28 c-36 28 -116 46 -116 27 0 -6 10 -14 23 -18 42 -13 74 -43 105
-101 l31 -58 -2 -268 -2 -267 43 0 42 0 0 273 c0 317 2 326 64 288 20 -13 48
-38 62 -56 l26 -34 1 -236 2 -235 42 0 43 0 0 260 c0 256 0 261 24 309 28 54
87 111 116 111 11 0 20 5 20 10 0 6 -16 10 -36 10 -38 0 -96 -30 -114 -58 -9
-14 -10 -12 -5 8 17 64 96 150 139 150 19 0 22 19 4 21 -59 5 -109 -18 -142
-67 l-24 -36 -11 53 c-14 63 -48 111 -91 129 -44 18 -48 6 -9 -27 l33 -28 -30
-6 c-16 -3 -39 -2 -52 3 -30 10 -82 10 -82 0 0 -4 14 -13 32 -20 l32 -12 -29
-30 -30 -31 -8 36 c-9 47 -40 91 -77 110 -30 15 -50 19 -50 9z"/>
<path d="M455 1923 c-11 -2 -31 -9 -45 -14 -32 -13 -113 -131 -104 -153 3 -9
1 -16 -5 -16 -20 0 -12 35 20 84 16 27 29 49 27 50 -2 1 -21 7 -43 12 -22 6
-46 13 -53 15 -8 3 -38 -39 -78 -110 l-65 -113 22 -24 c16 -18 28 -22 51 -17
19 4 35 0 47 -11 17 -16 22 -16 43 -3 30 19 65 7 73 -26 4 -14 17 -30 30 -37
32 -17 49 -64 29 -81 -8 -7 -24 -25 -36 -41 -19 -28 -19 -30 -3 -49 25 -27 48
-24 73 11 26 35 27 48 5 72 -9 10 -11 18 -5 18 18 0 34 -40 28 -66 -5 -20 -2
-26 19 -34 54 -21 125 -8 125 22 0 5 -24 20 -52 34 -63 30 -35 25 39 -7 43
-19 54 -20 67 -10 31 25 18 48 -44 82 -32 18 -57 35 -55 37 2 2 35 -13 74 -35
77 -41 106 -39 106 8 0 18 -14 31 -63 59 -34 20 -68 42 -75 50 -6 7 8 1 33
-14 104 -63 148 -80 164 -67 35 29 15 59 -94 138 -77 55 -211 133 -231 133 -9
0 -33 -15 -53 -34 -36 -35 -72 -53 -83 -42 -4 3 1 6 10 6 9 0 37 18 62 40 25
22 54 40 64 40 31 0 195 -99 311 -189 l26 -20 32 25 c18 14 32 31 32 39 0 7
-28 61 -61 120 -56 96 -64 106 -86 102 -14 -2 -41 0 -61 4 -43 11 -188 19
-217 12z"/>
<path d="M3331 1599 c-54 -59 -55 -59 -100 -54 l-46 6 -70 -92 c-85 -111 -90
-119 -73 -119 7 0 46 38 87 84 70 79 76 83 102 74 27 -9 27 -10 22 -84 -4 -46
-2 -74 4 -74 5 0 31 42 57 93 26 50 57 109 68 131 l20 38 28 -27 c15 -14 34
-25 42 -23 8 2 54 -43 108 -104 82 -95 110 -121 110 -103 0 3 -14 36 -31 73
l-30 67 28 22 c15 13 32 23 36 23 5 0 38 -27 74 -60 72 -65 99 -77 83 -35 -5
14 -7 25 -5 25 3 0 27 -13 53 -30 97 -60 88 -32 -20 62 -49 43 -59 47 -76 37
-16 -10 -25 -7 -61 22 l-42 34 -32 -19 c-18 -10 -44 -26 -59 -35 -26 -15 -27
-15 -73 36 -25 29 -52 50 -58 47 -7 -2 -24 7 -37 21 -13 14 -31 24 -39 24 -9
-1 -40 -28 -70 -60z"/>
<path d="M334 1313 c-41 -8 -58 -40 -62 -114 l-4 -69 -80 0 c-44 0 -88 -4 -98
-10 -35 -18 -40 -65 -40 -342 0 -302 4 -327 60 -347 46 -15 734 -15 780 0 56
20 60 45 60 347 0 277 -5 324 -40 342 -10 6 -54 10 -98 10 l-80 0 -4 70 c-3
56 -8 75 -26 93 -21 21 -31 22 -185 24 -89 0 -172 -1 -183 -4z m274 -115 c7
-7 12 -25 12 -40 l0 -28 -120 0 -120 0 0 28 c0 15 5 33 12 40 16 16 200 16
216 0z m-44 -214 c12 -5 16 -21 16 -65 l0 -59 60 0 c69 0 73 -6 68 -101 l-3
-54 -62 -3 -62 -3 -3 -62 -3 -62 -75 0 -75 0 -3 62 -3 62 -62 3 -62 3 -3 54
c-5 95 -1 101 68 101 l60 0 0 59 c0 38 4 61 13 64 18 8 113 8 131 1z"/>
<path d="M3053 948 c-29 -30 -53 -58 -53 -63 0 -5 27 17 60 50 33 33 60 55 60
50 0 -5 -28 -38 -62 -72 -34 -35 -58 -63 -52 -63 5 0 36 27 69 60 33 33 64 60
69 60 6 0 -25 -36 -69 -80 -44 -44 -75 -80 -70 -80 6 0 44 34 85 75 41 41 76
72 79 69 3 -2 -35 -45 -84 -94 -49 -50 -85 -90 -80 -90 6 0 48 38 95 85 47 47
89 85 95 85 5 0 -37 -47 -95 -105 -58 -58 -100 -105 -95 -105 6 0 53 43 105
95 52 52 96 92 99 89 3 -2 -44 -54 -104 -114 -60 -61 -105 -110 -100 -110 5 0
59 48 120 108 l110 107 -119 -123 c-66 -67 -116 -125 -112 -129 4 -4 57 43
119 105 62 62 115 112 118 112 3 0 -51 -56 -120 -125 -69 -68 -121 -128 -118
-132 4 -4 64 49 132 117 69 69 125 122 125 119 0 -3 -60 -65 -132 -137 -73
-72 -129 -134 -125 -138 4 -4 62 47 130 114 68 67 125 122 128 122 3 0 -55
-60 -130 -134 -74 -74 -132 -138 -128 -142 4 -4 66 51 137 122 72 71 130 127
130 125 0 -3 -62 -68 -137 -143 -75 -76 -134 -140 -130 -144 4 -4 68 53 142
126 74 74 135 132 135 129 0 -3 -63 -68 -140 -144 -77 -77 -140 -144 -140
-149 0 -6 63 52 140 129 77 77 140 135 140 130 0 -6 -63 -73 -140 -150 -76
-76 -137 -141 -134 -144 2 -3 68 58 144 134 77 77 140 135 140 130 0 -6 -65
-75 -145 -155 -79 -79 -142 -146 -139 -149 2 -3 70 60 149 139 80 80 145 140
145 135 0 -6 -67 -77 -150 -160 -82 -82 -147 -151 -144 -154 2 -3 72 62 154
144 83 83 150 145 150 140 0 -6 -70 -80 -155 -165 -85 -85 -152 -156 -149
-159 2 -3 75 64 162 149 l157 155 -164 -167 c-91 -93 -161 -171 -157 -175 4
-4 82 67 174 157 l167 165 -160 -164 c-197 -203 -187 -192 -180 -199 3 -4 10
0 15 8 7 11 10 12 10 2 0 -7 -7 -20 -15 -29 -9 -8 -13 -18 -10 -21 3 -4 10 0
15 8 8 13 10 13 10 -1 0 -9 -7 -19 -15 -23 -8 -3 -15 -11 -15 -17 0 -8 4 -8
15 1 12 10 15 10 15 -3 0 -8 -7 -17 -15 -21 -8 -3 -15 -11 -15 -17 0 -8 4 -8
15 1 12 10 15 10 15 -3 0 -8 -7 -17 -15 -21 -8 -3 -15 -11 -15 -17 0 -8 4 -8
15 1 20 17 19 1 -2 -22 -9 -10 -11 -18 -6 -18 6 0 16 7 23 15 7 8 17 15 23 15
6 0 -2 -13 -18 -30 -16 -17 -24 -30 -18 -30 5 0 18 9 29 21 10 11 28 26 39 31
14 8 12 2 -9 -21 -17 -17 -25 -31 -20 -31 6 0 23 13 39 30 16 16 33 30 39 30
5 0 -3 -14 -19 -30 -16 -17 -24 -30 -19 -30 6 0 23 14 39 30 16 17 33 30 39
30 5 0 -3 -13 -19 -30 -16 -17 -24 -30 -19 -30 6 0 21 11 34 25 13 14 27 25
32 25 4 0 -1 -9 -13 -21 -31 -31 -13 -37 19 -6 33 32 52 37 21 6 -33 -33 -12
-36 23 -3 19 16 24 19 14 6 -26 -30 -12 -41 17 -14 13 12 27 22 32 22 5 0 0
-6 -11 -14 -10 -8 -16 -17 -13 -20 3 -4 19 4 35 16 19 15 24 16 15 5 -18 -23
-8 -33 13 -12 17 18 56 12 56 -8 0 -8 3 -8 12 1 7 7 19 12 27 12 11 0 12 -3 5
-8 -19 -12 156 -13 178 -1 15 8 19 8 14 0 -12 -19 10 -12 29 9 10 11 23 20 28
20 6 0 2 -6 -9 -14 -10 -8 -15 -18 -11 -22 4 -5 21 6 38 24 16 18 33 32 36 32
4 0 -4 -11 -17 -25 -39 -42 -13 -41 29 1 74 74 106 99 47 37 -33 -35 -57 -66
-53 -70 4 -3 60 46 124 110 64 64 114 120 110 124 -4 3 -22 -7 -39 -23 -35
-32 -18 -3 21 34 13 13 20 26 17 30 -4 3 -11 0 -16 -8 -6 -8 -10 -11 -10 -6 0
5 7 18 17 28 20 23 10 36 -14 17 -10 -7 -7 -1 6 14 35 39 16 48 -20 9 -16 -18
-33 -32 -37 -32 -3 0 14 20 38 45 24 24 41 47 37 51 -10 10 -128 -108 -123
-123 3 -7 2 -14 -2 -17 -4 -3 -8 3 -9 13 -1 10 29 48 68 87 38 38 69 73 69 78
0 6 -29 -19 -65 -54 -36 -35 -65 -60 -65 -54 0 5 29 39 65 74 36 35 65 69 65
74 0 6 -31 -21 -70 -59 -38 -38 -70 -65 -70 -59 0 5 32 41 70 79 39 38 70 74
70 79 0 6 -36 -25 -80 -69 -44 -44 -80 -75 -80 -70 0 6 36 46 80 90 44 44 80
84 80 90 0 5 -39 -30 -88 -78 -48 -48 -92 -87 -97 -87 -5 0 35 45 90 100 55
55 95 100 90 100 -6 0 -53 -43 -105 -95 -52 -52 -99 -95 -105 -95 -5 0 42 52
105 115 63 63 110 115 105 115 -6 0 -66 -56 -135 -125 -69 -69 -127 -125 -130
-125 -3 0 57 63 134 140 77 77 137 143 133 147 -4 4 -74 -58 -155 -137 l-147
-145 154 157 c85 87 151 161 147 165 -4 4 -77 -62 -164 -147 -86 -85 -141
-138 -122 -116 19 21 93 96 165 166 71 71 126 132 122 137 -5 4 -53 -38 -108
-93 -54 -56 -99 -98 -99 -95 0 3 48 54 107 113 59 59 104 110 100 114 -4 4
-27 -13 -52 -38 -25 -25 -45 -43 -45 -39 0 3 23 29 52 58 28 29 49 56 45 59
-4 4 -32 -18 -64 -49 -31 -32 -58 -56 -59 -54 -2 2 26 32 61 67 36 36 65 69
65 74 0 6 -36 -25 -80 -69 -44 -43 -82 -77 -84 -74 -3 3 33 43 79 89 47 47 85
89 85 95 0 5 -47 -37 -105 -95 -57 -57 -107 -102 -109 -99 -3 3 44 54 104 114
61 60 110 114 110 120 0 5 -57 -48 -128 -118 -70 -70 -132 -127 -137 -127 -5
0 53 63 130 140 76 76 137 141 134 144 -2 3 -92 -82 -198 -187 -107 -106 -189
-183 -183 -172 6 11 88 96 181 190 94 93 171 174 171 180 0 5 -76 -67 -170
-160 -93 -93 -170 -166 -170 -161 0 5 71 81 157 168 86 87 153 158 147 158 -5
0 -72 -63 -149 -140 -76 -76 -140 -138 -142 -137 -1 2 57 63 129 135 72 72
128 135 125 139 -4 4 -66 -51 -137 -122 -72 -71 -130 -127 -130 -124 0 3 53
58 117 122 64 64 113 120 110 124 -4 4 -60 -45 -125 -107 l-117 -115 104 107
c58 59 102 111 98 114 -4 4 -52 -37 -107 -92 -55 -55 -100 -98 -100 -95 0 3
39 45 87 93 48 48 84 90 80 94 -4 4 -48 -33 -99 -82 l-93 -89 79 82 c44 46 77
85 73 89 -3 4 -44 -29 -89 -72 l-83 -79 68 70 c89 93 87 109 -3 20 -38 -38
-72 -67 -74 -64 -3 3 19 30 49 59 30 30 55 59 55 64 0 6 -27 -16 -60 -49 -33
-32 -62 -57 -65 -54 -2 3 16 25 40 49 25 24 45 49 45 54 0 6 -25 -14 -55 -44
-30 -30 -55 -50 -55 -44 0 5 16 25 35 44 19 19 35 38 35 44 0 6 -19 -9 -43
-32 -55 -54 -74 -55 -22 -2 49 51 34 53 -19 3 -40 -38 -40 -38 -12 -4 35 43
23 56 -14 14 -16 -17 -31 -29 -33 -26 -3 2 4 14 15 25 27 27 13 37 -15 10 -27
-25 -47 -30 -22 -6 23 23 9 31 -15 9 -18 -17 -20 -17 -14 -2 8 21 0 22 -20 1
-15 -14 -16 -14 -16 2 0 14 -2 14 -16 3 -9 -8 -18 -9 -22 -3 -4 5 -52 11 -107
13 l-100 2 -52 -53z"/>
<path d="M1223 889 c-168 -12 -224 -38 -175 -82 28 -25 93 -46 262 -82 249
-53 261 -57 222 -82 -32 -19 -210 -94 -357 -148 -76 -29 -141 -57 -143 -63 -3
-9 365 -318 392 -328 28 -11 315 195 437 313 119 115 136 178 60 228 -73 49
-280 115 -516 165 -80 17 -85 25 -28 39 86 22 95 52 15 50 -26 -1 -102 -6
-169 -10z"/>
<path d="M2580 840 c0 -5 -9 -10 -20 -10 -11 0 -20 -4 -20 -9 0 -5 -9 -11 -20
-14 -18 -5 -20 -12 -17 -64 2 -32 8 -67 14 -78 9 -15 8 -22 -5 -32 -16 -11
-16 -14 0 -42 14 -26 15 -31 2 -42 -9 -7 -12 -20 -8 -33 8 -27 44 -66 61 -66
9 0 13 -13 13 -40 l0 -40 -40 0 -40 0 0 66 c0 64 -1 67 -46 120 l-46 54 -72 0
c-40 0 -77 5 -83 11 -6 6 -21 8 -33 4 -17 -5 -21 -13 -18 -38 3 -29 6 -32 33
-29 17 2 57 5 90 8 l60 5 38 -45 c37 -44 37 -46 35 -128 -1 -71 -2 -76 -7 -33
l-6 50 -78 5 c-71 5 -79 7 -101 35 -21 25 -28 28 -43 19 -11 -7 -18 -23 -18
-40 0 -24 5 -30 35 -37 19 -5 63 -11 97 -14 l61 -5 4 -54 3 -54 -32 0 c-30 0
-33 -3 -33 -31 l0 -31 -67 4 -68 3 0 -29 c0 -39 27 -56 53 -33 13 12 36 17 75
17 54 0 57 1 57 25 0 24 0 24 113 27 l112 3 3 113 c2 87 6 112 16 112 17 0 66
56 66 75 0 7 -6 18 -14 24 -12 10 -12 16 2 42 16 28 16 31 1 42 -14 11 -15 17
-5 36 7 12 13 49 14 82 2 53 0 59 -18 59 -11 0 -20 5 -20 10 0 6 -9 10 -20 10
-11 0 -20 5 -20 10 0 6 -9 10 -20 10 -11 0 -20 -4 -20 -10z"/>
</g>
</svg>
