<?xml version="1.0" standalone="no"?>
<!DOCTYPE svg PUBLIC "-//W3C//DTD SVG 20010904//EN"
 "http://www.w3.org/TR/2001/REC-SVG-20010904/DTD/svg10.dtd">
<svg version="1.0" xmlns="http://www.w3.org/2000/svg"
 width="100.000000pt" height="100.000000pt" viewBox="0 0 100.000000 100.000000"
 preserveAspectRatio="xMidYMid meet">
<metadata>
Created by potrace 1.15, written by Peter Selinger 2001-2017
</metadata>
<g transform="translate(0.000000,100.000000) scale(0.100000,-0.100000)"
fill="#000000" stroke="none">
<path d="M580 840 c0 -5 -9 -10 -20 -10 -11 0 -20 -4 -20 -9 0 -5 -9 -11 -20
-14 -17 -4 -20 -13 -18 -59 1 -29 8 -65 15 -80 12 -24 12 -28 -2 -28 -19 0
-19 -29 0 -57 13 -18 13 -22 0 -33 -10 -8 -13 -21 -9 -34 8 -27 44 -66 61 -66
9 0 13 -13 13 -40 l0 -40 -40 0 -40 0 0 66 c0 64 -1 67 -46 120 l-46 54 -72 0
c-40 0 -77 5 -83 11 -6 6 -21 8 -33 4 -17 -5 -21 -13 -18 -38 3 -29 6 -32 33
-29 17 2 57 5 90 8 l60 5 38 -45 c37 -44 37 -45 35 -128 -1 -61 -3 -69 -5 -30
l-4 52 -75 0 c-72 0 -76 1 -105 32 -24 27 -32 31 -47 22 -9 -6 -17 -23 -17
-40 0 -24 5 -30 35 -37 19 -5 63 -12 98 -14 l62 -5 0 -54 c0 -53 0 -54 -30
-54 -27 0 -30 -3 -30 -31 l0 -31 -67 4 -68 3 0 -29 c0 -39 27 -56 53 -33 13
12 36 17 75 17 54 0 57 1 57 25 0 24 0 24 113 27 l112 3 3 113 c2 87 6 112 16
112 17 0 66 56 66 75 0 7 -7 18 -15 25 -13 11 -13 15 0 33 19 28 19 57 0 57
-14 0 -14 3 -2 28 8 15 15 53 16 85 1 51 -1 57 -19 57 -11 0 -20 5 -20 10 0 6
-9 10 -20 10 -11 0 -20 5 -20 10 0 6 -9 10 -20 10 -11 0 -20 -4 -20 -10z"/>
</g>
</svg>
