<?xml version="1.0" standalone="no"?>
<!DOCTYPE svg PUBLIC "-//W3C//DTD SVG 20010904//EN"
 "http://www.w3.org/TR/2001/REC-SVG-20010904/DTD/svg10.dtd">
<svg version="1.0" xmlns="http://www.w3.org/2000/svg"
 width="100.000000pt" height="100.000000pt" viewBox="0 0 100.000000 100.000000"
 preserveAspectRatio="xMidYMid meet">
<metadata>
Created by potrace 1.15, written by Peter Selinger 2001-2017
</metadata>
<g transform="translate(0.000000,100.000000) scale(0.100000,-0.100000)"
fill="#000000" stroke="none">
<path d="M51 946 c-30 -31 -51 -59 -47 -63 4 -4 32 18 62 49 30 31 54 53 54
50 0 -4 -28 -35 -62 -69 -34 -34 -59 -65 -55 -69 3 -4 39 24 79 62 l73 68 -75
-77 c-58 -60 -75 -84 -76 -108 -2 -30 2 -28 95 62 l96 94 -97 -100 c-54 -55
-98 -107 -98 -115 0 -8 48 33 108 90 l107 105 -108 -110 c-59 -61 -107 -117
-107 -125 0 -8 53 37 118 100 l117 115 -120 -122 c-65 -67 -116 -126 -112
-130 4 -4 58 43 120 105 62 62 115 112 118 112 3 0 -51 -56 -120 -124 -69 -69
-122 -128 -118 -132 4 -5 64 48 132 116 69 69 125 122 125 119 0 -3 -60 -65
-132 -137 -73 -72 -129 -134 -125 -138 4 -5 65 48 135 116 l127 125 -135 -137
c-73 -76 -131 -141 -126 -145 4 -4 65 51 137 123 71 72 129 128 129 125 0 -3
-62 -68 -137 -143 -75 -76 -134 -141 -130 -145 4 -4 69 54 145 127 l137 135
-145 -147 c-79 -81 -141 -151 -137 -155 4 -4 68 54 142 128 74 74 135 132 135
130 0 -3 -64 -70 -142 -148 -78 -78 -139 -146 -135 -150 4 -4 70 56 147 133
77 77 140 137 140 135 0 -3 -64 -70 -142 -148 -119 -119 -143 -148 -144 -174
-2 -29 8 -21 152 122 85 85 154 151 154 148 0 -3 -70 -75 -155 -159 -85 -85
-155 -161 -155 -169 0 -9 73 56 163 144 l162 160 -165 -167 c-90 -92 -161
-171 -157 -175 4 -4 83 67 175 157 l167 165 -175 -177 c-96 -98 -171 -181
-166 -185 4 -4 11 -1 16 7 8 12 10 12 10 1 0 -8 -8 -20 -17 -27 -10 -7 -14
-16 -10 -20 4 -5 12 -2 17 6 8 12 10 12 10 1 0 -8 -8 -20 -17 -27 -10 -7 -14
-16 -10 -20 4 -5 12 -2 17 6 8 12 10 12 10 1 0 -8 -8 -20 -17 -27 -10 -7 -14
-16 -10 -20 4 -5 12 -2 17 6 6 8 10 11 10 6 0 -5 -7 -18 -17 -28 -9 -10 -13
-21 -9 -25 4 -4 11 -1 16 7 6 8 10 11 10 6 0 -5 -7 -18 -17 -28 -23 -26 -9
-34 16 -9 32 32 38 25 7 -8 l-28 -29 31 2 c16 1 42 12 57 26 l27 25 -18 -27
c-23 -37 -6 -36 30 2 16 17 33 30 37 30 5 0 -4 -11 -19 -24 -15 -13 -25 -28
-20 -32 4 -4 22 6 39 22 19 16 24 19 14 6 -28 -33 -10 -40 22 -9 16 15 32 27
36 27 5 0 -2 -9 -15 -19 -13 -11 -21 -23 -16 -27 4 -4 22 6 39 22 19 16 24 19
14 6 -27 -32 -11 -40 21 -11 25 22 26 22 9 2 -26 -31 -1 -31 33 0 25 21 25 21
7 0 -18 -22 -18 -22 16 -21 18 0 39 6 47 12 11 8 13 8 7 -1 -4 -8 -1 -13 8
-13 9 0 16 5 16 10 0 6 5 10 11 10 5 0 8 -3 6 -7 -8 -13 163 -14 185 -2 15 8
19 8 14 0 -12 -19 10 -12 29 9 10 11 23 20 28 20 6 0 2 -6 -9 -14 -10 -8 -15
-18 -11 -22 4 -5 21 6 38 24 16 18 33 32 36 32 4 0 -6 -13 -22 -30 -21 -22
-24 -30 -13 -30 9 0 31 17 50 38 19 20 48 48 64 62 16 13 2 -3 -31 -38 -33
-35 -53 -62 -45 -62 9 0 65 51 127 113 98 99 111 116 111 147 1 33 0 34 -14
16 -8 -11 -14 -16 -14 -11 0 5 7 17 17 27 20 23 10 36 -14 17 -10 -7 -7 -1 6
14 35 39 16 48 -20 9 -16 -18 -33 -32 -37 -32 -3 0 14 20 38 45 66 68 38 67
-33 -1 -60 -57 -60 -57 7 13 39 40 66 76 62 80 -4 4 -34 -20 -67 -54 -32 -33
-59 -58 -59 -55 0 4 30 37 67 74 37 37 64 71 60 75 -4 4 -38 -22 -75 -58 l-67
-64 70 73 c53 55 70 79 71 103 2 30 -1 29 -85 -55 -47 -47 -89 -86 -92 -86 -4
0 36 41 87 92 52 50 94 99 94 107 0 9 -46 -30 -103 -87 -56 -56 -105 -102
-108 -102 -3 0 43 48 102 107 60 59 109 114 109 122 0 9 -60 -44 -133 -117
-73 -72 -135 -132 -138 -132 -3 0 57 62 133 137 76 75 138 144 138 152 0 9
-66 -49 -147 -129 l-148 -145 148 150 c81 83 147 157 147 165 0 8 -73 -57
-162 -145 -89 -88 -159 -155 -155 -150 4 6 78 81 164 167 87 86 154 161 149
165 -4 4 -52 -38 -107 -93 -54 -56 -99 -98 -99 -95 0 3 48 54 107 113 59 59
104 111 100 115 -4 4 -29 -13 -55 -38 -41 -39 -40 -37 7 13 30 32 52 61 48 65
-4 4 -36 -20 -70 -53 -60 -57 -60 -57 7 13 39 40 66 76 62 80 -4 4 -41 -27
-83 -70 -41 -42 -78 -77 -82 -77 -3 0 35 40 84 90 49 49 86 93 82 96 -4 4 -53
-38 -109 -94 -56 -56 -104 -102 -107 -102 -3 0 44 49 104 110 89 89 110 116
111 141 2 29 -12 18 -179 -147 -100 -99 -186 -184 -192 -189 -5 -6 -9 -8 -8
-5 2 3 85 87 185 187 100 100 179 185 175 190 -4 4 -85 -69 -180 -162 -94 -94
-168 -165 -164 -160 4 6 76 78 159 162 84 84 149 155 145 160 -4 4 -74 -58
-155 -137 l-147 -145 135 137 c73 76 131 141 127 145 -4 4 -66 -51 -137 -122
-72 -71 -130 -127 -130 -124 0 3 53 58 117 122 65 64 114 119 110 123 -4 5
-60 -44 -125 -106 l-117 -115 104 107 c58 59 102 111 97 115 -4 4 -52 -38
-107 -93 -54 -56 -99 -98 -99 -95 0 3 39 45 87 93 48 48 84 91 80 95 -4 4 -49
-33 -100 -83 l-92 -89 79 82 c44 45 77 86 73 90 -4 4 -45 -29 -90 -73 l-82
-79 75 78 c92 95 72 103 -25 10 l-70 -68 64 66 63 67 -31 -2 c-22 -1 -45 -15
-83 -51 l-52 -50 43 48 c54 61 45 75 -12 19 -24 -23 -46 -42 -49 -42 -3 0 10
16 29 35 50 50 32 57 -20 9 -30 -28 -34 -30 -13 -7 38 42 25 55 -16 17 -19
-16 -24 -19 -14 -6 27 32 11 40 -21 11 -15 -13 -21 -16 -14 -6 20 25 5 34 -19
12 -18 -17 -20 -17 -14 -2 7 19 -11 24 -22 6 -4 -8 -9 -7 -15 2 -8 12 -11 11
-19 -1 -6 -10 -13 -11 -17 -5 -5 6 -53 12 -108 14 l-100 2 -54 -55z"/>
</g>
</svg>
