<?xml version="1.0" standalone="no"?>
<!DOCTYPE svg PUBLIC "-//W3C//DTD SVG 20010904//EN"
 "http://www.w3.org/TR/2001/REC-SVG-20010904/DTD/svg10.dtd">
<svg version="1.0" xmlns="http://www.w3.org/2000/svg"
 width="100.000000pt" height="100.000000pt" viewBox="0 0 100.000000 100.000000"
 preserveAspectRatio="xMidYMid meet">
<metadata>
Created by potrace 1.15, written by Peter Selinger 2001-2017
</metadata>
<g transform="translate(0.000000,100.000000) scale(0.100000,-0.100000)"
fill="#000000" stroke="none">
<path d="M112 873 c-33 -13 -42 -60 -42 -217 l0 -156 -37 -34 c-34 -31 -37
-37 -28 -63 13 -36 57 -44 89 -15 88 80 243 76 323 -10 30 -32 63 -107 63
-145 0 -17 7 -39 16 -47 20 -20 63 -21 70 -1 5 11 21 15 60 15 51 0 54 -1 44
-19 -15 -28 -12 -87 5 -121 23 -45 53 -60 116 -60 47 0 63 5 88 26 41 34 56
90 38 143 -8 22 -10 44 -6 48 17 17 89 214 89 242 0 26 -4 29 -46 35 -26 3
-62 6 -81 6 l-35 0 3 84 c3 62 9 89 22 103 22 25 23 73 2 73 -34 0 -86 -31
-105 -62 -15 -25 -20 -50 -20 -107 l0 -73 -72 7 c-40 3 -80 8 -89 11 -11 3
-27 49 -54 155 -26 103 -45 157 -59 170 -18 17 -36 19 -180 18 -89 0 -167 -3
-174 -6z m315 -208 l29 -115 -138 0 -138 0 0 115 0 115 108 0 109 0 30 -115z"/>
<path d="M205 421 c-169 -43 -230 -246 -107 -363 53 -51 72 -58 152 -58 80 0
99 7 152 58 106 101 76 278 -57 345 -39 19 -102 27 -140 18z m98 -112 c39 -20
57 -51 57 -100 0 -82 -69 -134 -145 -109 -92 30 -105 162 -20 208 26 15 81 15
108 1z"/>
</g>
</svg>
