<?xml version="1.0" standalone="no"?>
<!DOCTYPE svg PUBLIC "-//W3C//DTD SVG 20010904//EN"
 "http://www.w3.org/TR/2001/REC-SVG-20010904/DTD/svg10.dtd">
<svg version="1.0" xmlns="http://www.w3.org/2000/svg"
 width="100.000000pt" height="100.000000pt" viewBox="0 0 100.000000 100.000000"
 preserveAspectRatio="xMidYMid meet">
<metadata>
Created by potrace 1.15, written by Peter Selinger 2001-2017
</metadata>
<g transform="translate(0.000000,100.000000) scale(0.100000,-0.100000)"
fill="#000000" stroke="none">
<path d="M107 892 c-59 -59 -107 -114 -107 -122 0 -8 29 15 65 50 36 35 65 62
65 58 0 -3 -29 -34 -65 -69 -36 -34 -65 -69 -65 -78 0 -9 20 4 50 34 28 27 50
46 50 43 0 -4 -24 -29 -52 -57 -29 -27 -49 -53 -45 -58 5 -4 26 11 48 34 21
23 39 39 39 35 0 -3 -21 -28 -47 -54 -53 -54 -51 -80 2 -28 19 19 35 31 35 27
0 -3 -19 -24 -42 -46 -24 -22 -39 -43 -35 -48 5 -4 24 9 43 29 19 21 34 35 34
31 0 -4 -19 -26 -42 -50 -23 -23 -38 -46 -34 -50 4 -4 23 9 42 29 19 21 34 35
34 31 0 -4 -19 -26 -42 -50 -23 -23 -38 -46 -34 -50 4 -4 25 11 47 34 21 23
39 39 39 35 0 -3 -21 -28 -47 -54 -26 -26 -44 -51 -40 -54 4 -4 25 11 47 33
22 23 40 38 40 34 0 -4 -20 -27 -45 -51 -63 -62 -56 -75 7 -15 l53 50 -53 -55
c-68 -73 -68 -100 1 -32 29 29 56 52 59 52 4 0 -20 -25 -53 -57 -32 -31 -59
-63 -59 -72 0 -9 27 10 68 49 l67 65 -68 -70 c-90 -94 -86 -118 6 -30 l72 70
-73 -75 c-99 -104 -91 -123 10 -25 l83 80 -84 -87 c-47 -48 -82 -91 -78 -95 4
-4 45 29 90 73 l82 79 -89 -92 c-50 -51 -87 -96 -82 -100 4 -4 47 33 97 83 49
50 89 88 89 85 0 -3 -44 -49 -97 -103 -53 -54 -94 -101 -90 -105 4 -4 103 88
220 205 117 116 217 215 222 219 6 4 -93 -97 -220 -224 -126 -128 -226 -236
-222 -240 5 -4 111 96 238 223 126 126 229 227 229 225 0 -3 -107 -113 -237
-243 -130 -131 -234 -241 -229 -245 4 -4 108 94 232 218 123 124 224 223 224
220 0 -3 -103 -109 -229 -236 -212 -213 -229 -232 -227 -263 2 -17 6 -35 10
-39 4 -4 92 78 196 182 105 105 190 187 190 184 0 -3 -80 -85 -177 -182 -98
-97 -174 -179 -170 -183 4 -5 83 66 175 156 91 91 163 161 159 155 -4 -5 -73
-76 -154 -157 -81 -81 -144 -150 -140 -155 4 -4 69 54 145 127 l137 135 -125
-127 c-68 -70 -121 -131 -117 -135 4 -4 55 40 112 97 58 58 105 102 105 99 0
-3 -42 -47 -92 -97 -51 -50 -89 -94 -85 -98 4 -5 41 25 82 66 41 41 75 72 75
68 0 -3 -30 -36 -67 -72 -41 -40 -62 -66 -52 -66 9 0 37 22 63 50 25 27 46 46
46 42 0 -3 -19 -26 -42 -49 -41 -42 -36 -61 6 -26 20 17 20 17 7 1 -12 -16
-11 -18 3 -18 9 0 16 5 16 10 0 6 5 10 11 10 5 0 7 -5 4 -10 -3 -6 1 -10 9
-10 9 0 16 5 16 10 0 6 5 10 11 10 5 0 8 -4 5 -9 -3 -5 8 -8 24 -7 22 1 45 17
88 59 32 31 60 57 64 57 3 0 -19 -24 -50 -54 -31 -30 -53 -58 -49 -62 4 -4 36
20 70 54 34 34 65 62 69 62 3 0 -19 -24 -50 -54 -31 -30 -53 -58 -49 -62 4 -4
31 14 60 42 43 41 45 42 13 7 -22 -24 -36 -46 -32 -50 4 -4 23 9 42 29 19 21
34 35 34 31 0 -4 -10 -17 -22 -30 -26 -28 -16 -43 12 -18 18 17 20 17 14 2 -7
-20 6 -22 25 -5 11 10 13 10 7 1 -9 -17 16 -17 33 -1 11 10 13 10 7 1 -4 -8
-2 -13 6 -13 18 0 324 308 315 317 -4 4 -76 -60 -160 -142 l-152 -150 160 162
c87 89 156 166 151 170 -4 4 -77 -62 -162 -148 -84 -85 -154 -153 -154 -150 0
3 73 79 162 168 89 89 159 166 154 170 -4 4 -79 -65 -167 -153 -87 -88 -159
-158 -159 -155 0 3 75 81 167 173 92 92 164 171 160 175 -4 4 -83 -67 -175
-157 l-167 -165 175 177 c96 98 171 181 167 185 -4 4 -85 -69 -180 -162 l-172
-170 180 182 c98 100 176 186 172 190 -4 4 -87 -71 -185 -167 l-177 -175 185
187 c101 103 181 190 177 194 -4 4 -87 -71 -185 -167 l-177 -174 180 183 180
182 1 50 1 51 -49 -48 c-26 -26 -48 -44 -48 -41 0 4 23 28 50 54 28 26 50 54
50 62 0 11 -17 1 -47 -28 l-48 -45 49 52 c59 63 54 84 -7 27 -35 -32 -34 -30
7 13 59 63 54 84 -7 27 -35 -32 -34 -30 7 13 61 64 53 84 -9 23 -25 -24 -45
-41 -45 -38 0 4 24 29 52 57 29 27 49 53 45 57 -4 4 -29 -12 -55 -37 -41 -39
-40 -37 7 13 30 32 51 61 47 65 -4 4 -30 -15 -57 -44 -27 -28 -49 -49 -49 -45
0 4 26 32 57 64 31 32 53 61 49 65 -4 4 -32 -18 -62 -49 -30 -31 -54 -53 -54
-50 0 4 28 35 62 69 34 34 59 65 55 69 -3 4 -37 -22 -74 -57 l-68 -63 65 67
c63 66 69 78 28 56 -15 -8 -19 -8 -14 0 16 25 -13 8 -49 -29 -21 -22 -42 -40
-46 -40 -4 0 9 16 28 35 47 47 34 59 -15 14 -24 -22 -28 -24 -13 -7 32 36 19
49 -16 17 -15 -13 -21 -16 -14 -6 17 21 7 35 -13 18 -11 -9 -15 -9 -19 1 -3 8
-53 -34 -128 -107 l-124 -120 110 112 c60 62 106 116 101 120 -4 4 -59 -45
-123 -110 -64 -64 -119 -117 -123 -117 -4 0 43 49 104 109 61 61 107 113 103
118 -5 4 -80 -65 -168 -154 -87 -88 -159 -158 -159 -155 0 4 66 73 147 154 81
81 144 151 140 155 -4 4 -63 -47 -130 -112 l-122 -120 115 118 c63 64 108 117
99 117 -8 0 -61 -47 -117 -104 -56 -57 -102 -100 -102 -97 0 3 43 49 96 102
93 93 95 97 65 95 -26 -1 -54 -24 -161 -131 -72 -71 -130 -126 -130 -122 0 4
55 61 122 127 67 65 119 123 115 127 -4 4 -51 -36 -105 -88 l-96 -94 83 88
c46 48 81 90 77 94 -4 4 -39 -24 -79 -63 -70 -67 -70 -67 -13 -7 33 34 57 66
53 70 -4 4 -36 -20 -70 -53 -57 -54 -58 -54 -13 -7 85 90 40 71 -54 -22 -50
-49 -90 -86 -90 -83 0 4 35 41 77 82 43 41 74 78 70 83 -5 4 -26 -11 -48 -34
-21 -23 -39 -39 -39 -36 0 4 12 19 27 35 36 38 20 49 -19 12 -19 -16 -24 -19
-14 -6 25 29 13 41 -16 16 -18 -15 -20 -16 -9 -1 11 14 11 17 0 17 -8 0 -63
-48 -122 -108z"/>
</g>
</svg>
