<?xml version="1.0" standalone="no"?>
<!DOCTYPE svg PUBLIC "-//W3C//DTD SVG 20010904//EN"
 "http://www.w3.org/TR/2001/REC-SVG-20010904/DTD/svg10.dtd">
<svg version="1.0" xmlns="http://www.w3.org/2000/svg"
 width="100.000000pt" height="100.000000pt" viewBox="0 0 100.000000 100.000000"
 preserveAspectRatio="xMidYMid meet">
<metadata>
Created by potrace 1.15, written by Peter Selinger 2001-2017
</metadata>
<g transform="translate(0.000000,100.000000) scale(0.100000,-0.100000)"
fill="#000000" stroke="none">
<path d="M385 983 c-44 -23 -94 -72 -118 -118 -18 -32 -22 -56 -21 -125 0 -71
6 -98 32 -166 33 -83 123 -228 187 -299 l35 -40 35 40 c64 71 154 216 187 299
39 101 46 227 14 286 -25 49 -74 98 -118 121 -48 25 -188 26 -233 2z m182
-133 c39 -24 56 -53 56 -100 0 -70 -57 -130 -123 -130 -37 0 -90 31 -107 63
-18 35 -19 96 -3 127 17 31 70 60 110 60 19 0 49 -9 67 -20z"/>
<path d="M57 197 c-42 -127 -45 -157 -19 -180 17 -15 64 -17 464 -17 418 0
446 1 461 18 24 27 21 53 -20 179 l-37 113 -43 0 c-50 0 -52 -7 -28 -105 25
-106 63 -95 -335 -95 -398 0 -360 -11 -335 95 24 98 22 105 -28 105 l-43 0
-37 -113z"/>
</g>
</svg>
