<?xml version="1.0" standalone="no"?>
<!DOCTYPE svg PUBLIC "-//W3C//DTD SVG 20010904//EN"
 "http://www.w3.org/TR/2001/REC-SVG-20010904/DTD/svg10.dtd">
<svg version="1.0" xmlns="http://www.w3.org/2000/svg"
 width="100.000000pt" height="100.000000pt" viewBox="0 0 100.000000 100.000000"
 preserveAspectRatio="xMidYMid meet">
<metadata>
Created by potrace 1.15, written by Peter Selinger 2001-2017
</metadata>
<g transform="translate(0.000000,100.000000) scale(0.100000,-0.100000)"
fill="#000000" stroke="none">
<path d="M190 793 c-8 -3 -27 -14 -42 -24 -29 -21 -59 -24 -75 -8 -6 6 -23 9
-39 7 -27 -3 -29 -6 -29 -43 0 -34 5 -43 35 -63 42 -29 106 -26 151 7 36 27
62 27 100 -1 22 -17 45 -23 79 -23 34 0 57 6 79 23 16 12 40 22 51 22 11 0 35
-10 51 -22 22 -17 45 -23 79 -23 34 0 57 6 79 23 38 28 64 28 100 1 45 -33
109 -36 151 -7 30 20 35 29 35 63 0 37 -2 40 -29 43 -16 2 -33 -1 -39 -7 -17
-17 -46 -13 -79 10 -49 35 -107 36 -167 3 -46 -26 -53 -28 -73 -15 -50 32 -75
41 -108 41 -33 0 -58 -9 -108 -41 -20 -13 -27 -11 -71 14 -46 25 -96 33 -131
20z"/>
<path d="M165 555 c-45 -27 -67 -30 -94 -14 -10 7 -30 9 -44 5 -24 -6 -27 -11
-27 -46 0 -36 3 -41 42 -61 49 -25 106 -21 149 10 36 27 48 26 100 -4 57 -32
100 -31 160 3 l49 27 49 -27 c60 -34 103 -35 160 -3 52 30 64 31 100 4 43 -31
100 -35 149 -10 39 20 42 25 42 61 0 35 -3 40 -27 46 -14 4 -34 2 -44 -5 -27
-16 -49 -13 -94 14 -52 32 -102 32 -149 0 -46 -31 -60 -31 -111 0 -51 32 -99
32 -150 0 -51 -31 -65 -31 -111 0 -47 32 -97 32 -149 0z"/>
<path d="M167 336 c-51 -27 -82 -33 -92 -16 -9 14 -48 13 -63 -2 -7 -7 -12
-26 -12 -44 0 -40 36 -66 100 -72 36 -3 52 1 83 22 46 32 60 32 100 4 45 -32
131 -32 171 0 36 28 56 28 92 0 22 -18 42 -23 84 -23 41 0 63 6 87 23 40 28
54 28 100 -4 31 -21 47 -25 83 -22 64 6 100 32 100 72 0 18 -5 37 -12 44 -15
15 -54 16 -63 2 -10 -17 -41 -11 -92 16 -56 30 -109 28 -154 -5 -36 -27 -62
-26 -100 2 -22 16 -45 22 -79 22 -34 0 -57 -6 -79 -22 -38 -28 -64 -29 -100
-2 -45 33 -98 35 -154 5z"/>
</g>
</svg>
