<?xml version="1.0" standalone="no"?>
<!DOCTYPE svg PUBLIC "-//W3C//DTD SVG 20010904//EN"
 "http://www.w3.org/TR/2001/REC-SVG-20010904/DTD/svg10.dtd">
<svg version="1.0" xmlns="http://www.w3.org/2000/svg"
 width="100.000000pt" height="100.000000pt" viewBox="0 0 100.000000 100.000000"
 preserveAspectRatio="xMidYMid meet">
<metadata>
Created by potrace 1.15, written by Peter Selinger 2001-2017
</metadata>
<g transform="translate(0.000000,100.000000) scale(0.100000,-0.100000)"
fill="#000000" stroke="none">
<path d="M75 970 c-4 -6 -16 -8 -27 -4 -17 5 -19 3 -14 -14 4 -11 2 -23 -3
-27 -7 -4 -7 -12 1 -25 10 -15 10 -22 0 -32 -9 -9 -9 -15 0 -25 8 -10 8 -17 0
-25 -8 -8 -9 -15 -1 -25 6 -7 8 -21 4 -30 -5 -14 -10 -287 -5 -300 1 -4 1
-251 0 -260 -4 -25 0 -166 4 -170 8 -8 443 -6 455 1 6 4 16 4 22 0 13 -8 448
-8 456 0 3 3 6 130 7 282 1 216 -2 278 -12 281 -10 4 -10 8 0 20 14 17 18 252
5 260 -4 3 -3 11 4 19 9 11 9 17 -1 29 -9 11 -10 18 -1 28 15 19 1 30 -17 14
-12 -9 -16 -9 -19 1 -3 6 -11 12 -18 12 -7 0 -15 -6 -18 -12 -3 -10 -7 -10
-20 1 -14 11 -20 11 -34 0 -13 -11 -17 -11 -20 -1 -7 17 -30 15 -37 -5 -6 -14
-8 -14 -20 3 -12 16 -16 17 -32 4 -13 -12 -18 -12 -21 -2 -3 6 -11 12 -18 12
-7 0 -15 -6 -18 -12 -3 -10 -7 -10 -20 1 -14 11 -20 11 -34 0 -13 -11 -17 -11
-20 -1 -5 14 -33 16 -33 2 0 -14 -28 -12 -33 3 -3 9 -8 8 -22 -3 -14 -11 -19
-12 -22 -2 -5 14 -33 16 -33 2 0 -14 -28 -12 -33 3 -3 9 -8 8 -22 -3 -14 -11
-19 -12 -22 -2 -5 14 -33 16 -33 2 0 -14 -28 -12 -33 3 -3 9 -8 8 -22 -3 -14
-11 -19 -12 -22 -2 -7 18 -30 15 -38 -5 -6 -17 -7 -17 -20 1 -13 17 -17 17
-31 5 -13 -11 -18 -11 -21 -1 -7 18 -30 15 -38 -5 -6 -17 -7 -17 -19 0 -15 20
-22 21 -31 7z"/>
</g>
</svg>
