<?xml version="1.0" standalone="no"?>
<!DOCTYPE svg PUBLIC "-//W3C//DTD SVG 20010904//EN"
 "http://www.w3.org/TR/2001/REC-SVG-20010904/DTD/svg10.dtd">
<svg version="1.0" xmlns="http://www.w3.org/2000/svg"
 width="100.000000pt" height="100.000000pt" viewBox="0 0 100.000000 100.000000"
 preserveAspectRatio="xMidYMid meet">
<metadata>
Created by potrace 1.15, written by Peter Selinger 2001-2017
</metadata>
<g transform="translate(0.000000,100.000000) scale(0.100000,-0.100000)"
fill="#000000" stroke="none">
<path d="M82 635 l3 -355 119 -57 120 -57 106 55 106 55 16 -37 c28 -66 128
-229 141 -229 12 0 90 122 122 191 12 25 31 43 61 57 l44 22 0 355 c0 234 -3
355 -10 355 -6 0 -56 -23 -111 -51 -112 -56 -98 -56 -176 13 -24 21 -47 38
-53 38 -6 0 -11 -82 -13 -222 l-2 -223 -3 223 c-1 138 -6 222 -12 222 -5 0
-56 -23 -113 -51 l-103 -51 -108 51 c-60 28 -115 51 -123 51 -11 0 -13 -60
-11 -355z m678 -114 c36 -26 55 -69 54 -124 0 -38 -13 -72 -59 -164 -67 -134
-58 -135 -132 13 -56 113 -64 166 -34 227 36 74 108 95 171 48z"/>
<path d="M674 499 c-67 -18 -84 -124 -27 -169 29 -23 42 -24 76 -9 68 31 66
144 -3 178 -8 5 -29 4 -46 0z"/>
</g>
</svg>
