<?xml version="1.0" standalone="no"?>
<!DOCTYPE svg PUBLIC "-//W3C//DTD SVG 20010904//EN"
 "http://www.w3.org/TR/2001/REC-SVG-20010904/DTD/svg10.dtd">
<svg version="1.0" xmlns="http://www.w3.org/2000/svg"
 width="100.000000pt" height="100.000000pt" viewBox="0 0 100.000000 100.000000"
 preserveAspectRatio="xMidYMid meet">
<metadata>
Created by potrace 1.15, written by Peter Selinger 2001-2017
</metadata>
<g transform="translate(0.000000,100.000000) scale(0.100000,-0.100000)"
fill="#000000" stroke="none">
<path d="M344 969 l-29 -30 -3 -266 -3 -265 -29 -24 c-105 -89 -93 -273 24
-351 44 -30 55 -33 126 -33 71 0 82 3 126 32 64 44 94 101 94 181 0 70 -26
133 -70 171 l-29 24 -3 265 -3 266 -29 30 c-26 27 -36 31 -86 31 -50 0 -60 -4
-86 -31z m126 -39 c19 -19 20 -33 20 -288 l0 -268 31 -23 c47 -35 69 -79 69
-137 0 -65 -29 -111 -90 -141 -56 -29 -84 -29 -140 0 -61 31 -83 65 -87 134
-5 67 17 113 67 141 l29 17 3 278 c3 262 4 279 22 293 27 19 52 18 76 -6z"/>
<path d="M390 590 c0 -212 -2 -240 -16 -240 -25 0 -71 -53 -85 -98 -10 -35 -9
-48 5 -87 54 -140 254 -119 282 31 9 47 -26 119 -70 145 l-36 21 0 234 0 234
-40 0 -40 0 0 -240z"/>
</g>
</svg>
