<?xml version="1.0" standalone="no"?>
<!DOCTYPE svg PUBLIC "-//W3C//DTD SVG 20010904//EN"
 "http://www.w3.org/TR/2001/REC-SVG-20010904/DTD/svg10.dtd">
<svg version="1.0" xmlns="http://www.w3.org/2000/svg"
 width="100.000000pt" height="100.000000pt" viewBox="0 0 100.000000 100.000000"
 preserveAspectRatio="xMidYMid meet">
<metadata>
Created by potrace 1.15, written by Peter Selinger 2001-2017
</metadata>
<g transform="translate(0.000000,100.000000) scale(0.100000,-0.100000)"
fill="#000000" stroke="none">
<path d="M270 944 c0 -3 13 -16 29 -30 27 -22 61 -97 61 -132 0 -8 -14 4 -31
27 -31 44 -79 71 -124 71 -37 0 -31 -14 15 -34 40 -17 90 -77 105 -125 l7 -24
-36 28 c-40 30 -122 48 -114 24 3 -8 13 -16 24 -18 36 -7 71 -40 102 -98 l31
-58 -2 -268 -2 -267 43 0 42 0 0 273 c0 317 2 326 64 288 20 -13 48 -38 62
-56 l26 -34 1 -236 2 -235 42 0 43 0 0 260 c0 256 0 261 24 309 28 54 87 111
116 111 11 0 20 5 20 10 0 6 -16 10 -36 10 -38 0 -96 -30 -114 -58 -9 -14 -10
-12 -5 8 17 64 96 150 139 150 19 0 22 19 4 21 -59 5 -109 -18 -142 -67 l-24
-36 -11 53 c-14 63 -48 111 -91 129 -44 18 -48 6 -9 -27 l33 -28 -30 -6 c-16
-3 -39 -2 -52 3 -31 11 -82 10 -82 -1 0 -5 14 -14 32 -20 l32 -11 -30 -31 -29
-30 -8 36 c-9 47 -40 91 -77 110 -30 15 -50 19 -50 9z"/>
</g>
</svg>
