<?xml version="1.0" standalone="no"?>
<!DOCTYPE svg PUBLIC "-//W3C//DTD SVG 20010904//EN"
 "http://www.w3.org/TR/2001/REC-SVG-20010904/DTD/svg10.dtd">
<svg version="1.0" xmlns="http://www.w3.org/2000/svg"
 width="100.000000pt" height="100.000000pt" viewBox="0 0 100.000000 100.000000"
 preserveAspectRatio="xMidYMid meet">
<metadata>
Created by potrace 1.15, written by Peter Selinger 2001-2017
</metadata>
<g transform="translate(0.000000,100.000000) scale(0.100000,-0.100000)"
fill="#000000" stroke="none">
<path d="M331 599 c-54 -59 -55 -59 -100 -54 l-46 6 -75 -98 c-85 -109 -87
-113 -68 -113 7 0 46 38 87 84 70 79 76 83 102 74 27 -9 27 -10 22 -84 -4 -46
-2 -74 4 -74 5 0 31 42 57 93 26 50 57 109 68 131 l20 38 28 -27 c15 -14 34
-25 42 -23 9 2 54 -42 107 -104 81 -94 111 -122 111 -103 0 3 -14 36 -31 73
l-30 67 28 22 c15 13 32 23 37 23 5 0 37 -27 73 -60 69 -65 99 -78 83 -35 -5
14 -8 25 -5 25 2 0 26 -13 52 -30 57 -36 86 -41 57 -9 -10 12 -45 43 -76 71
-49 43 -59 47 -76 37 -16 -10 -25 -7 -61 22 l-42 34 -32 -19 c-18 -10 -44 -26
-59 -35 -26 -15 -27 -15 -73 36 -25 29 -52 50 -58 47 -7 -2 -24 7 -37 21 -13
14 -31 25 -39 24 -9 0 -40 -27 -70 -60z"/>
</g>
</svg>
