<?xml version="1.0" standalone="no"?>
<!DOCTYPE svg PUBLIC "-//W3C//DTD SVG 20010904//EN"
 "http://www.w3.org/TR/2001/REC-SVG-20010904/DTD/svg10.dtd">
<svg version="1.0" xmlns="http://www.w3.org/2000/svg"
 width="100.000000pt" height="100.000000pt" viewBox="0 0 100.000000 100.000000"
 preserveAspectRatio="xMidYMid meet">
<metadata>
Created by potrace 1.15, written by Peter Selinger 2001-2017
</metadata>
<g transform="translate(0.000000,100.000000) scale(0.100000,-0.100000)"
fill="#000000" stroke="none">
<path d="M209 889 c-116 -9 -159 -20 -173 -41 -13 -22 7 -46 59 -69 22 -10
117 -34 210 -53 201 -43 245 -54 245 -65 0 -16 -275 -134 -459 -197 -59 -21
-73 -39 -45 -59 11 -7 99 -79 198 -159 98 -80 183 -146 188 -146 5 0 64 37
131 83 274 185 414 326 405 405 -8 68 -207 146 -563 222 -83 18 -85 21 -29 38
97 28 95 53 -4 51 -37 -1 -110 -5 -163 -10z"/>
</g>
</svg>
